<?xml version="1.0" encoding="iso-8859-1"?>
<!-- Generator: Adobe Illustrator 17.1.0, SVG Export Plug-In . SVG Version: 6.00 Build 0)  -->
<!DOCTYPE svg PUBLIC "-//W3C//DTD SVG 1.1//EN" "http://www.w3.org/Graphics/SVG/1.1/DTD/svg11.dtd">
<svg version="1.1" id="Capa_1" xmlns="http://www.w3.org/2000/svg" xmlns:xlink="http://www.w3.org/1999/xlink" x="0px" y="0px"
	 viewBox="0 0 455 455" style="enable-background:new 0 0 455 455;" xml:space="preserve">
<g>
	<path d="M227.5,210C168.224,210,120,258.224,120,317.5S168.224,425,227.5,425S335,376.776,335,317.5S286.776,210,227.5,210z
		 M227.5,410c-51.005,0-92.5-41.495-92.5-92.5s41.495-92.5,92.5-92.5s92.5,41.495,92.5,92.5S278.505,410,227.5,410z"/>
	<path d="M227.5,250c-37.22,0-67.5,30.28-67.5,67.5s30.28,67.5,67.5,67.5s67.5-30.28,67.5-67.5S264.72,250,227.5,250z M227.5,370
		c-28.949,0-52.5-23.551-52.5-52.5s23.551-52.5,52.5-52.5s52.5,23.551,52.5,52.5S256.449,370,227.5,370z"/>
	<path d="M397.5,180H293.853l-5.667-34.005C285.756,131.418,272.277,120,257.5,120h-60c-14.777,0-28.256,11.418-30.686,25.995
		L161.147,180H57.5C31.309,180,10,201.309,10,227.5v180c0,26.191,21.309,47.5,47.5,47.5h340c26.191,0,47.5-21.309,47.5-47.5v-180
		C445,201.309,423.691,180,397.5,180z M181.61,148.461c1.216-7.296,8.493-13.461,15.89-13.461h60c7.397,0,14.674,6.165,15.89,13.461
		L278.647,180H176.353L181.61,148.461z M430,407.5c0,17.92-14.58,32.5-32.5,32.5h-340C39.58,440,25,425.42,25,407.5v-180
		c0-17.92,14.58-32.5,32.5-32.5h229.969c0.007,0,0.014,0.001,0.022,0.001c0.004,0,0.008-0.001,0.012-0.001H397.5
		c17.92,0,32.5,14.58,32.5,32.5V407.5z"/>
	<path d="M70.001,165h33c4.142,0,7.5-3.358,7.5-7.5s-3.358-7.5-7.5-7.5h-33c-4.142,0-7.5,3.358-7.5,7.5S65.859,165,70.001,165z"/>
	<path d="M377.5,220c-15.164,0-27.5,12.336-27.5,27.5s12.336,27.5,27.5,27.5s27.5-12.336,27.5-27.5S392.664,220,377.5,220z
		 M377.5,260c-6.893,0-12.5-5.607-12.5-12.5s5.607-12.5,12.5-12.5s12.5,5.607,12.5,12.5S384.393,260,377.5,260z"/>
	<path d="M139.127,149.312c2.973,2.883,7.721,2.812,10.605-0.163c2.884-2.973,2.811-7.722-0.163-10.605l-28.903-28.03l36.841-16.497
		c2.955-1.323,4.727-4.393,4.396-7.613L157.77,46.25l38.826,11.044c3.108,0.885,6.444-0.326,8.261-3.007L227.5,20.87l22.644,33.417
		c1.816,2.68,5.148,3.893,8.261,3.007L297.23,46.25l-4.134,40.154c-0.332,3.22,1.44,6.29,4.396,7.613l36.841,16.497l-28.903,28.03
		c-2.974,2.883-3.046,7.632-0.163,10.605c1.471,1.517,3.426,2.279,5.384,2.279c1.881,0,3.764-0.703,5.221-2.116l36.849-35.736
		c1.786-1.731,2.597-4.236,2.165-6.686c-0.432-2.45-2.051-4.526-4.321-5.543l-41.992-18.803l4.712-45.768
		c0.255-2.475-0.734-4.915-2.64-6.513c-1.905-1.6-4.48-2.15-6.873-1.469l-44.254,12.588l-25.81-38.089
		C232.313,1.233,229.988,0,227.5,0s-4.813,1.233-6.209,3.293l-25.81,38.089l-44.254-12.588c-2.39-0.68-4.967-0.13-6.873,1.469
		s-2.895,4.039-2.64,6.513l4.712,45.768l-41.992,18.803c-2.271,1.017-3.889,3.093-4.321,5.543c-0.432,2.45,0.379,4.955,2.165,6.686
		L139.127,149.312z"/>
</g>
<g>
</g>
<g>
</g>
<g>
</g>
<g>
</g>
<g>
</g>
<g>
</g>
<g>
</g>
<g>
</g>
<g>
</g>
<g>
</g>
<g>
</g>
<g>
</g>
<g>
</g>
<g>
</g>
<g>
</g>
</svg>
